<svg xmlns="http://www.w3.org/2000/svg" xmlns:xlink="http://www.w3.org/1999/xlink" width="1200" zoomAndPan="magnify" viewBox="0 0 900 149.999998" height="200" preserveAspectRatio="xMidYMid meet" version="1.0"><defs><g/><clipPath id="5ec0264125"><path d="M 23.328125 9.484375 L 154.578125 9.484375 L 154.578125 140.734375 L 23.328125 140.734375 Z M 23.328125 9.484375 " clip-rule="nonzero"/></clipPath></defs><g clip-path="url(#5ec0264125)"><path fill="#000000" d="M 134.914062 140.507812 L 42.769531 140.507812 C 32.046875 140.507812 23.328125 131.789062 23.328125 121.070312 L 23.328125 28.921875 C 23.328125 18.203125 32.046875 9.484375 42.769531 9.484375 L 134.914062 9.484375 C 145.632812 9.484375 154.355469 18.203125 154.355469 28.921875 L 154.355469 121.070312 C 154.355469 131.789062 145.632812 140.507812 134.914062 140.507812 Z M 42.769531 12.539062 C 33.734375 12.539062 26.386719 19.890625 26.386719 28.921875 L 26.386719 121.070312 C 26.386719 130.101562 33.734375 137.453125 42.769531 137.453125 L 134.914062 137.453125 C 143.949219 137.453125 151.296875 130.101562 151.296875 121.070312 L 151.296875 28.921875 C 151.296875 19.890625 143.949219 12.539062 134.914062 12.539062 Z M 42.769531 12.539062 " fill-opacity="1" fill-rule="nonzero"/></g><path fill="#000000" d="M 135.738281 75 C 135.738281 100.894531 114.746094 121.898438 88.839844 121.898438 C 82.511719 121.898438 76.492188 120.644531 70.988281 118.371094 C 81.503906 111.65625 93.253906 101.972656 104.542969 90.695312 C 115.835938 79.402344 125.515625 67.640625 132.210938 57.136719 C 134.484375 62.640625 135.738281 68.671875 135.738281 75 Z M 135.738281 75 " fill-opacity="1" fill-rule="nonzero"/><path fill="#000000" d="M 136.816406 27.023438 C 131.925781 22.132812 121.105469 26.71875 112.75 31.515625 C 113.789062 32.089844 114.808594 32.6875 115.804688 33.339844 C 122.226562 29.804688 127.472656 27.972656 130.96875 27.972656 C 132.597656 27.972656 133.84375 28.367188 134.65625 29.183594 C 137.207031 31.730469 135.675781 38.621094 130.5 48.035156 C 124.742188 58.523438 114.449219 72.148438 100.222656 86.371094 C 85.988281 100.609375 72.375 110.902344 61.878906 116.660156 C 52.460938 121.835938 45.574219 123.355469 43.023438 120.804688 C 40.476562 118.257812 42.003906 111.371094 47.183594 101.953125 C 46.53125 100.964844 45.929688 99.957031 45.359375 98.917969 C 40.558594 107.261719 35.972656 118.085938 40.863281 122.976562 C 42.34375 124.453125 44.371094 125.066406 46.703125 125.066406 C 52.085938 125.066406 59.105469 121.824219 64.925781 118.484375 C 65.035156 118.421875 65.148438 118.351562 65.261719 118.289062 C 76.582031 111.714844 89.757812 101.148438 102.382812 88.53125 C 115 75.917969 125.566406 62.730469 132.128906 51.410156 C 132.191406 51.308594 132.253906 51.195312 132.3125 51.082031 C 135.667969 45.265625 138.90625 38.242188 138.90625 32.863281 C 138.90625 30.527344 138.296875 28.5 136.816406 27.023438 Z M 136.816406 27.023438 " fill-opacity="1" fill-rule="nonzero"/><path fill="#000000" d="M 137.855469 119.609375 C 137.855469 121.996094 135.917969 123.933594 133.53125 123.933594 C 131.140625 123.933594 129.203125 121.996094 129.203125 119.609375 C 129.203125 117.21875 131.140625 115.28125 133.53125 115.28125 C 135.917969 115.28125 137.855469 117.21875 137.855469 119.609375 Z M 137.855469 119.609375 " fill-opacity="1" fill-rule="nonzero"/><path fill="#000000" d="M 115.96875 36.746094 C 113.054688 34.667969 109.894531 32.921875 106.53125 31.558594 C 101.082031 29.328125 95.097656 28.105469 88.839844 28.105469 C 62.9375 28.105469 41.945312 49.097656 41.945312 75 C 41.945312 81.257812 43.175781 87.238281 45.410156 92.699219 C 46.765625 96.054688 48.519531 99.210938 50.574219 102.128906 C 53.632812 106.425781 57.394531 110.1875 61.695312 113.246094 C 61.695312 113.246094 61.695312 113.246094 61.703125 113.246094 C 72.699219 106.988281 85.550781 96.726562 98.0625 84.210938 C 110.566406 71.707031 120.820312 58.867188 127.097656 47.863281 C 124.039062 43.5625 120.269531 39.792969 115.96875 36.746094 Z M 67.742188 96.113281 C 62.3125 96.113281 57.910156 91.710938 57.910156 86.28125 C 57.910156 80.847656 62.3125 76.449219 67.742188 76.449219 C 73.171875 76.449219 77.574219 80.851562 77.574219 86.28125 C 77.574219 91.710938 73.171875 96.113281 67.742188 96.113281 Z M 84.519531 47.945312 C 81.804688 47.945312 79.605469 45.746094 79.605469 43.03125 C 79.605469 40.316406 81.804688 38.113281 84.519531 38.113281 C 87.234375 38.113281 89.4375 40.316406 89.4375 43.03125 C 89.4375 45.746094 87.234375 47.945312 84.519531 47.945312 Z M 84.519531 47.945312 " fill-opacity="1" fill-rule="nonzero"/><path fill="#000000" d="M 42.964844 22.183594 C 42.964844 26.585938 39.398438 30.148438 35 30.148438 C 39.398438 30.148438 42.964844 33.714844 42.964844 38.113281 C 42.964844 33.714844 46.53125 30.148438 50.929688 30.148438 C 46.53125 30.148438 42.964844 26.585938 42.964844 22.183594 Z M 42.964844 22.183594 " fill-opacity="1" fill-rule="nonzero"/><g fill="#000000" fill-opacity="1"><g transform="translate(166.142664, 108.850282)"><g><path d="M 9.125 -6.09375 C 4.507812 -11.125 2.203125 -17.289062 2.203125 -24.59375 C 2.203125 -31.894531 4.507812 -38.078125 9.125 -43.140625 C 13.738281 -48.203125 19.601562 -50.734375 26.71875 -50.734375 C 33.25 -50.734375 38.628906 -48.6875 42.859375 -44.59375 L 42.859375 -82.640625 L 59.859375 -82.640625 L 59.859375 0 L 43.046875 0 L 43.046875 -5.578125 L 42.859375 -5.578125 C 38.628906 -0.898438 33.25 1.4375 26.71875 1.4375 C 19.601562 1.4375 13.738281 -1.070312 9.125 -6.09375 Z M 23.59375 -32.953125 C 21.382812 -30.773438 20.28125 -27.988281 20.28125 -24.59375 C 20.28125 -21.195312 21.335938 -18.425781 23.453125 -16.28125 C 25.566406 -14.132812 28.351562 -13.0625 31.8125 -13.0625 C 35.132812 -13.0625 37.867188 -14.148438 40.015625 -16.328125 C 42.160156 -18.515625 43.234375 -21.269531 43.234375 -24.59375 C 43.234375 -27.988281 42.128906 -30.773438 39.921875 -32.953125 C 37.710938 -35.140625 35.007812 -36.234375 31.8125 -36.234375 C 28.539062 -36.234375 25.800781 -35.140625 23.59375 -32.953125 Z M 23.59375 -32.953125 "/></g></g></g><g fill="#000000" fill-opacity="1"><g transform="translate(226.965398, 108.850282)"><g><path d="M 7.390625 -76.765625 C 9.378906 -78.753906 11.75 -79.75 14.5 -79.75 C 17.257812 -79.75 19.628906 -78.753906 21.609375 -76.765625 C 23.597656 -74.785156 24.59375 -72.414062 24.59375 -69.65625 C 24.59375 -66.90625 23.597656 -64.535156 21.609375 -62.546875 C 19.628906 -60.566406 17.257812 -59.578125 14.5 -59.578125 C 11.75 -59.578125 9.378906 -60.566406 7.390625 -62.546875 C 5.410156 -64.535156 4.421875 -66.90625 4.421875 -69.65625 C 4.421875 -72.414062 5.410156 -74.785156 7.390625 -76.765625 Z M 5.765625 -49.296875 L 5.765625 0 L 22.78125 0 L 22.78125 -49.296875 Z M 5.765625 -49.296875 "/></g></g></g><g fill="#000000" fill-opacity="1"><g transform="translate(251.179068, 108.850282)"><g><path d="M 3.5625 12.109375 L 17.484375 5.28125 C 20.046875 9.507812 24.5 11.625 30.84375 11.625 C 33.789062 11.625 36.53125 10.675781 39.0625 8.78125 C 41.59375 6.894531 42.859375 4 42.859375 0.09375 L 42.859375 -3.5625 C 39.847656 -0.226562 34.46875 1.4375 26.71875 1.4375 C 19.601562 1.4375 13.738281 -1.070312 9.125 -6.09375 C 4.507812 -11.125 2.203125 -17.289062 2.203125 -24.59375 C 2.203125 -31.894531 4.507812 -38.078125 9.125 -43.140625 C 13.738281 -48.203125 19.601562 -50.734375 26.71875 -50.734375 C 33.0625 -50.734375 38.34375 -48.78125 42.5625 -44.875 L 42.859375 -44.875 L 42.859375 -49.296875 L 59.859375 -49.296875 L 59.859375 1.34375 C 59.859375 9.351562 57.203125 15.535156 51.890625 19.890625 C 46.578125 24.242188 39.5625 26.421875 30.84375 26.421875 C 16.75 26.421875 7.65625 21.648438 3.5625 12.109375 Z M 23.59375 -32.953125 C 21.382812 -30.773438 20.28125 -27.988281 20.28125 -24.59375 C 20.28125 -21.195312 21.335938 -18.425781 23.453125 -16.28125 C 25.566406 -14.132812 28.351562 -13.0625 31.8125 -13.0625 C 35.132812 -13.0625 37.867188 -14.148438 40.015625 -16.328125 C 42.160156 -18.515625 43.234375 -21.269531 43.234375 -24.59375 C 43.234375 -27.988281 42.128906 -30.773438 39.921875 -32.953125 C 37.710938 -35.140625 35.007812 -36.234375 31.8125 -36.234375 C 28.539062 -36.234375 25.800781 -35.140625 23.59375 -32.953125 Z M 23.59375 -32.953125 "/></g></g></g><g fill="#000000" fill-opacity="1"><g transform="translate(312.001802, 108.850282)"><g><path d="M 7.390625 -76.765625 C 9.378906 -78.753906 11.75 -79.75 14.5 -79.75 C 17.257812 -79.75 19.628906 -78.753906 21.609375 -76.765625 C 23.597656 -74.785156 24.59375 -72.414062 24.59375 -69.65625 C 24.59375 -66.90625 23.597656 -64.535156 21.609375 -62.546875 C 19.628906 -60.566406 17.257812 -59.578125 14.5 -59.578125 C 11.75 -59.578125 9.378906 -60.566406 7.390625 -62.546875 C 5.410156 -64.535156 4.421875 -66.90625 4.421875 -69.65625 C 4.421875 -72.414062 5.410156 -74.785156 7.390625 -76.765625 Z M 5.765625 -49.296875 L 5.765625 0 L 22.78125 0 L 22.78125 -49.296875 Z M 5.765625 -49.296875 "/></g></g></g><g fill="#000000" fill-opacity="1"><g transform="translate(336.215473, 108.850282)"><g><path d="M 8.640625 -49.296875 L 8.640625 -67.65625 L 25.65625 -67.65625 L 25.65625 -49.296875 L 36.03125 -49.296875 L 36.03125 -36.328125 L 25.65625 -36.328125 L 25.65625 -20.65625 C 25.65625 -16.113281 26.9375 -13.84375 29.5 -13.84375 C 30.144531 -13.84375 30.816406 -13.96875 31.515625 -14.21875 C 32.222656 -14.476562 32.769531 -14.734375 33.15625 -14.984375 L 33.734375 -15.375 L 37.953125 -1.640625 C 34.304688 0.410156 30.144531 1.4375 25.46875 1.4375 C 22.257812 1.4375 19.5 0.878906 17.1875 -0.234375 C 14.882812 -1.359375 13.140625 -2.863281 11.953125 -4.75 C 10.773438 -6.644531 9.925781 -8.632812 9.40625 -10.71875 C 8.894531 -12.800781 8.640625 -15.023438 8.640625 -17.390625 L 8.640625 -36.328125 L 1.53125 -36.328125 L 1.53125 -49.296875 Z M 8.640625 -49.296875 "/></g></g></g><g fill="#000000" fill-opacity="1"><g transform="translate(369.36521, 108.850282)"><g><path d="M 9.125 -6.09375 C 4.507812 -11.125 2.203125 -17.289062 2.203125 -24.59375 C 2.203125 -31.894531 4.507812 -38.078125 9.125 -43.140625 C 13.738281 -48.203125 19.601562 -50.734375 26.71875 -50.734375 C 33.25 -50.734375 38.628906 -48.6875 42.859375 -44.59375 L 42.859375 -49.296875 L 59.859375 -49.296875 L 59.859375 0 L 43.046875 0 L 43.046875 -5.578125 L 42.859375 -5.578125 C 38.628906 -0.898438 33.25 1.4375 26.71875 1.4375 C 19.601562 1.4375 13.738281 -1.070312 9.125 -6.09375 Z M 23.59375 -32.953125 C 21.382812 -30.773438 20.28125 -27.988281 20.28125 -24.59375 C 20.28125 -21.195312 21.335938 -18.425781 23.453125 -16.28125 C 25.566406 -14.132812 28.351562 -13.0625 31.8125 -13.0625 C 35.132812 -13.0625 37.867188 -14.148438 40.015625 -16.328125 C 42.160156 -18.515625 43.234375 -21.269531 43.234375 -24.59375 C 43.234375 -27.988281 42.128906 -30.773438 39.921875 -32.953125 C 37.710938 -35.140625 35.007812 -36.234375 31.8125 -36.234375 C 28.539062 -36.234375 25.800781 -35.140625 23.59375 -32.953125 Z M 23.59375 -32.953125 "/></g></g></g><g fill="#000000" fill-opacity="1"><g transform="translate(430.187957, 108.850282)"><g><path d="M 5.765625 0 L 5.765625 -82.640625 L 22.78125 -82.640625 L 22.78125 0 Z M 5.765625 0 "/></g></g></g><g fill="#000000" fill-opacity="1"><g transform="translate(453.921207, 108.850282)"><g><path d="M 21.8125 -49.296875 L 21.8125 -25.84375 C 21.8125 -20.976562 22.546875 -17.519531 24.015625 -15.46875 C 25.492188 -13.414062 27.992188 -12.390625 31.515625 -12.390625 C 35.035156 -12.390625 37.53125 -13.414062 39 -15.46875 C 40.476562 -17.519531 41.21875 -20.976562 41.21875 -25.84375 L 41.21875 -49.296875 L 58.234375 -49.296875 L 58.234375 -21.71875 C 58.234375 -13.519531 56.101562 -7.609375 51.84375 -3.984375 C 47.582031 -0.367188 40.804688 1.4375 31.515625 1.4375 C 22.222656 1.4375 15.445312 -0.367188 11.1875 -3.984375 C 6.925781 -7.609375 4.796875 -13.519531 4.796875 -21.71875 L 4.796875 -49.296875 Z M 21.8125 -49.296875 "/></g></g></g><g fill="#000000" fill-opacity="1"><g transform="translate(512.149597, 108.850282)"><g><path d="M 5.765625 0 L 5.765625 -49.296875 L 22.78125 -49.296875 L 22.78125 -44.109375 L 22.96875 -44.109375 C 27.382812 -48.523438 32.09375 -50.734375 37.09375 -50.734375 C 39.53125 -50.734375 41.945312 -50.410156 44.34375 -49.765625 C 46.75 -49.128906 49.054688 -48.140625 51.265625 -46.796875 C 53.472656 -45.453125 55.265625 -43.546875 56.640625 -41.078125 C 58.023438 -38.609375 58.71875 -35.742188 58.71875 -32.484375 L 58.71875 0 L 41.703125 0 L 41.703125 -27.859375 C 41.703125 -30.421875 40.882812 -32.660156 39.25 -34.578125 C 37.613281 -36.503906 35.484375 -37.46875 32.859375 -37.46875 C 30.296875 -37.46875 27.972656 -36.472656 25.890625 -34.484375 C 23.816406 -32.503906 22.78125 -30.296875 22.78125 -27.859375 L 22.78125 0 Z M 5.765625 0 "/></g></g></g><g fill="#000000" fill-opacity="1"><g transform="translate(570.858419, 108.850282)"><g><path d="M 7.390625 -76.765625 C 9.378906 -78.753906 11.75 -79.75 14.5 -79.75 C 17.257812 -79.75 19.628906 -78.753906 21.609375 -76.765625 C 23.597656 -74.785156 24.59375 -72.414062 24.59375 -69.65625 C 24.59375 -66.90625 23.597656 -64.535156 21.609375 -62.546875 C 19.628906 -60.566406 17.257812 -59.578125 14.5 -59.578125 C 11.75 -59.578125 9.378906 -60.566406 7.390625 -62.546875 C 5.410156 -64.535156 4.421875 -66.90625 4.421875 -69.65625 C 4.421875 -72.414062 5.410156 -74.785156 7.390625 -76.765625 Z M 5.765625 -49.296875 L 5.765625 0 L 22.78125 0 L 22.78125 -49.296875 Z M 5.765625 -49.296875 "/></g></g></g><g fill="#000000" fill-opacity="1"><g transform="translate(595.072102, 108.850282)"><g><path d="M 18.25 -49.296875 L 30.265625 -22.484375 L 42.28125 -49.296875 L 62.453125 -49.296875 L 36.03125 0 L 24.5 0 L -1.921875 -49.296875 Z M 18.25 -49.296875 "/></g></g></g><g fill="#000000" fill-opacity="1"><g transform="translate(650.802256, 108.850282)"><g><path d="M 55.640625 -22.296875 L 19.890625 -22.296875 C 19.890625 -18.835938 21.007812 -16.273438 23.25 -14.609375 C 25.5 -12.941406 27.9375 -12.109375 30.5625 -12.109375 C 33.3125 -12.109375 35.488281 -12.472656 37.09375 -13.203125 C 38.695312 -13.941406 40.519531 -15.398438 42.5625 -17.578125 L 54.875 -11.4375 C 49.75 -2.851562 41.226562 1.4375 29.3125 1.4375 C 21.875 1.4375 15.492188 -1.109375 10.171875 -6.203125 C 4.859375 -11.296875 2.203125 -17.425781 2.203125 -24.59375 C 2.203125 -31.769531 4.859375 -37.921875 10.171875 -43.046875 C 15.492188 -48.171875 21.875 -50.734375 29.3125 -50.734375 C 37.125 -50.734375 43.476562 -48.472656 48.375 -43.953125 C 53.28125 -39.441406 55.734375 -32.988281 55.734375 -24.59375 C 55.734375 -23.445312 55.703125 -22.679688 55.640625 -22.296875 Z M 20.375 -31.703125 L 39.109375 -31.703125 C 38.722656 -34.265625 37.710938 -36.234375 36.078125 -37.609375 C 34.441406 -38.992188 32.34375 -39.6875 29.78125 -39.6875 C 26.96875 -39.6875 24.726562 -38.945312 23.0625 -37.46875 C 21.394531 -36 20.5 -34.078125 20.375 -31.703125 Z M 20.375 -31.703125 "/></g></g></g><g fill="#000000" fill-opacity="1"><g transform="translate(703.938078, 108.850282)"><g><path d="M 5.765625 0 L 5.765625 -49.296875 L 22.78125 -49.296875 L 22.78125 -42.1875 L 22.96875 -42.1875 C 23.09375 -42.4375 23.296875 -42.753906 23.578125 -43.140625 C 23.867188 -43.523438 24.492188 -44.195312 25.453125 -45.15625 C 26.421875 -46.125 27.445312 -46.988281 28.53125 -47.75 C 29.625 -48.519531 31.035156 -49.207031 32.765625 -49.8125 C 34.492188 -50.425781 36.253906 -50.734375 38.046875 -50.734375 C 39.910156 -50.734375 41.738281 -50.476562 43.53125 -49.96875 C 45.320312 -49.457031 46.632812 -48.945312 47.46875 -48.4375 L 48.8125 -47.65625 L 41.703125 -33.25 C 39.585938 -35.039062 36.640625 -35.9375 32.859375 -35.9375 C 30.804688 -35.9375 29.046875 -35.488281 27.578125 -34.59375 C 26.109375 -33.695312 25.066406 -32.609375 24.453125 -31.328125 C 23.847656 -30.046875 23.414062 -28.957031 23.15625 -28.0625 C 22.90625 -27.164062 22.78125 -26.457031 22.78125 -25.9375 L 22.78125 0 Z M 5.765625 0 "/></g></g></g><g fill="#000000" fill-opacity="1"><g transform="translate(746.984786, 108.850282)"><g><path d="M 27.1875 -50.734375 C 30.007812 -50.734375 32.796875 -50.410156 35.546875 -49.765625 C 38.304688 -49.128906 40.359375 -48.492188 41.703125 -47.859375 L 43.71875 -46.890625 L 38.15625 -35.75 C 34.3125 -37.800781 30.65625 -38.828125 27.1875 -38.828125 C 25.269531 -38.828125 23.910156 -38.617188 23.109375 -38.203125 C 22.304688 -37.785156 21.90625 -37 21.90625 -35.84375 C 21.90625 -35.582031 21.9375 -35.320312 22 -35.0625 C 22.0625 -34.8125 22.1875 -34.570312 22.375 -34.34375 C 22.570312 -34.125 22.75 -33.929688 22.90625 -33.765625 C 23.070312 -33.609375 23.347656 -33.429688 23.734375 -33.234375 C 24.117188 -33.046875 24.421875 -32.90625 24.640625 -32.8125 C 24.867188 -32.71875 25.238281 -32.570312 25.75 -32.375 C 26.257812 -32.1875 26.644531 -32.046875 26.90625 -31.953125 C 27.164062 -31.859375 27.597656 -31.710938 28.203125 -31.515625 C 28.804688 -31.328125 29.269531 -31.203125 29.59375 -31.140625 C 31.582031 -30.554688 33.3125 -29.910156 34.78125 -29.203125 C 36.257812 -28.503906 37.8125 -27.546875 39.4375 -26.328125 C 41.070312 -25.109375 42.335938 -23.570312 43.234375 -21.71875 C 44.140625 -19.863281 44.59375 -17.75 44.59375 -15.375 C 44.59375 -4.164062 36.804688 1.4375 21.234375 1.4375 C 17.710938 1.4375 14.363281 0.894531 11.1875 -0.1875 C 8.019531 -1.28125 5.734375 -2.367188 4.328125 -3.453125 L 2.203125 -5.1875 L 9.125 -16.8125 C 9.632812 -16.363281 10.304688 -15.832031 11.140625 -15.21875 C 11.972656 -14.613281 13.476562 -13.78125 15.65625 -12.71875 C 17.84375 -11.664062 19.734375 -11.140625 21.328125 -11.140625 C 24.859375 -11.140625 26.625 -12.328125 26.625 -14.703125 C 26.625 -15.785156 26.171875 -16.628906 25.265625 -17.234375 C 24.367188 -17.847656 22.847656 -18.539062 20.703125 -19.3125 C 18.554688 -20.082031 16.875 -20.785156 15.65625 -21.421875 C 12.582031 -23.023438 10.148438 -24.835938 8.359375 -26.859375 C 6.566406 -28.878906 5.671875 -31.550781 5.671875 -34.875 C 5.671875 -39.875 7.609375 -43.765625 11.484375 -46.546875 C 15.359375 -49.335938 20.59375 -50.734375 27.1875 -50.734375 Z M 27.1875 -50.734375 "/></g></g></g><g fill="#000000" fill-opacity="1"><g transform="translate(789.454966, 108.850282)"><g><path d="M 55.640625 -22.296875 L 19.890625 -22.296875 C 19.890625 -18.835938 21.007812 -16.273438 23.25 -14.609375 C 25.5 -12.941406 27.9375 -12.109375 30.5625 -12.109375 C 33.3125 -12.109375 35.488281 -12.472656 37.09375 -13.203125 C 38.695312 -13.941406 40.519531 -15.398438 42.5625 -17.578125 L 54.875 -11.4375 C 49.75 -2.851562 41.226562 1.4375 29.3125 1.4375 C 21.875 1.4375 15.492188 -1.109375 10.171875 -6.203125 C 4.859375 -11.296875 2.203125 -17.425781 2.203125 -24.59375 C 2.203125 -31.769531 4.859375 -37.921875 10.171875 -43.046875 C 15.492188 -48.171875 21.875 -50.734375 29.3125 -50.734375 C 37.125 -50.734375 43.476562 -48.472656 48.375 -43.953125 C 53.28125 -39.441406 55.734375 -32.988281 55.734375 -24.59375 C 55.734375 -23.445312 55.703125 -22.679688 55.640625 -22.296875 Z M 20.375 -31.703125 L 39.109375 -31.703125 C 38.722656 -34.265625 37.710938 -36.234375 36.078125 -37.609375 C 34.441406 -38.992188 32.34375 -39.6875 29.78125 -39.6875 C 26.96875 -39.6875 24.726562 -38.945312 23.0625 -37.46875 C 21.394531 -36 20.5 -34.078125 20.375 -31.703125 Z M 20.375 -31.703125 "/></g></g></g><g fill="#000000" fill-opacity="1"><g transform="translate(842.590738, 108.850282)"><g><path d="M 16.71875 -20.5625 C 19.789062 -20.5625 22.398438 -19.488281 24.546875 -17.34375 C 26.691406 -15.195312 27.765625 -12.585938 27.765625 -9.515625 C 27.765625 -6.503906 26.691406 -3.925781 24.546875 -1.78125 C 22.398438 0.363281 19.789062 1.4375 16.71875 1.4375 C 13.707031 1.4375 11.128906 0.363281 8.984375 -1.78125 C 6.835938 -3.925781 5.765625 -6.503906 5.765625 -9.515625 C 5.765625 -12.585938 6.835938 -15.195312 8.984375 -17.34375 C 11.128906 -19.488281 13.707031 -20.5625 16.71875 -20.5625 Z M 16.71875 -20.5625 "/></g></g></g></svg>