<svg xmlns="http://www.w3.org/2000/svg" xmlns:xlink="http://www.w3.org/1999/xlink" width="1200" zoomAndPan="magnify" viewBox="0 0 900 149.999998" height="200" preserveAspectRatio="xMidYMid meet" version="1.0"><defs><g/><clipPath id="8f10725b50"><path d="M 15 9.671875 L 146.25 9.671875 L 146.25 140.921875 L 15 140.921875 Z M 15 9.671875 " clip-rule="nonzero"/></clipPath></defs><g clip-path="url(#8f10725b50)"><path fill="#ffffff" d="M 126.585938 140.695312 L 34.441406 140.695312 C 23.722656 140.695312 15 131.976562 15 121.257812 L 15 29.109375 C 15 18.390625 23.722656 9.671875 34.441406 9.671875 L 126.585938 9.671875 C 137.304688 9.671875 146.027344 18.390625 146.027344 29.109375 L 146.027344 121.257812 C 146.027344 131.976562 137.304688 140.695312 126.585938 140.695312 Z M 34.441406 12.726562 C 25.40625 12.726562 18.058594 20.078125 18.058594 29.109375 L 18.058594 121.257812 C 18.058594 130.289062 25.40625 137.640625 34.441406 137.640625 L 126.585938 137.640625 C 135.621094 137.640625 142.96875 130.289062 142.96875 121.257812 L 142.96875 29.109375 C 142.96875 20.078125 135.621094 12.726562 126.585938 12.726562 Z M 34.441406 12.726562 " fill-opacity="1" fill-rule="nonzero"/></g><path fill="#ffffff" d="M 127.410156 75.1875 C 127.410156 101.082031 106.417969 122.085938 80.515625 122.085938 C 74.183594 122.085938 68.164062 120.832031 62.660156 118.558594 C 73.175781 111.84375 84.925781 102.160156 96.21875 90.878906 C 107.507812 79.589844 117.1875 67.828125 123.882812 57.324219 C 126.15625 62.828125 127.410156 68.859375 127.410156 75.1875 Z M 127.410156 75.1875 " fill-opacity="1" fill-rule="nonzero"/><path fill="#ffffff" d="M 128.492188 27.210938 C 123.597656 22.320312 112.777344 26.90625 104.421875 31.703125 C 105.460938 32.273438 106.480469 32.875 107.476562 33.527344 C 113.898438 29.992188 119.144531 28.15625 122.640625 28.15625 C 124.273438 28.15625 125.515625 28.554688 126.332031 29.371094 C 128.878906 31.917969 127.347656 38.808594 122.171875 48.222656 C 116.414062 58.710938 106.121094 72.332031 91.894531 86.558594 C 77.660156 100.796875 64.046875 111.089844 53.550781 116.847656 C 44.132812 122.023438 37.246094 123.542969 34.695312 120.992188 C 32.148438 118.445312 33.679688 111.558594 38.855469 102.140625 C 38.203125 101.152344 37.601562 100.144531 37.03125 99.105469 C 32.230469 107.449219 27.644531 118.273438 32.535156 123.164062 C 34.015625 124.640625 36.042969 125.253906 38.375 125.253906 C 43.757812 125.253906 50.777344 122.011719 56.597656 118.671875 C 56.707031 118.609375 56.820312 118.539062 56.933594 118.476562 C 68.253906 111.902344 81.429688 101.335938 94.058594 88.71875 C 106.671875 76.105469 117.238281 62.917969 123.804688 51.597656 C 123.863281 51.496094 123.925781 51.382812 123.984375 51.269531 C 127.339844 45.453125 130.578125 38.429688 130.578125 33.050781 C 130.578125 30.714844 129.96875 28.6875 128.492188 27.210938 Z M 128.492188 27.210938 " fill-opacity="1" fill-rule="nonzero"/><path fill="#ffffff" d="M 129.527344 119.796875 C 129.527344 122.183594 127.59375 124.121094 125.203125 124.121094 C 122.8125 124.121094 120.878906 122.183594 120.878906 119.796875 C 120.878906 117.40625 122.8125 115.46875 125.203125 115.46875 C 127.59375 115.46875 129.527344 117.40625 129.527344 119.796875 Z M 129.527344 119.796875 " fill-opacity="1" fill-rule="nonzero"/><path fill="#ffffff" d="M 107.640625 36.933594 C 104.726562 34.851562 101.566406 33.109375 98.203125 31.746094 C 92.753906 29.511719 86.769531 28.289062 80.515625 28.289062 C 54.609375 28.289062 33.617188 49.28125 33.617188 75.1875 C 33.617188 81.445312 34.851562 87.425781 37.082031 92.886719 C 38.4375 96.242188 40.191406 99.398438 42.25 102.3125 C 45.304688 106.613281 49.066406 110.375 53.367188 113.433594 C 53.367188 113.433594 53.367188 113.433594 53.375 113.433594 C 64.371094 107.175781 77.222656 96.914062 89.734375 84.398438 C 102.238281 71.894531 112.492188 59.054688 118.769531 48.050781 C 115.710938 43.75 111.941406 39.980469 107.640625 36.933594 Z M 59.414062 96.300781 C 53.984375 96.300781 49.582031 91.898438 49.582031 86.46875 C 49.582031 81.035156 53.984375 76.636719 59.414062 76.636719 C 64.84375 76.636719 69.246094 81.039062 69.246094 86.46875 C 69.246094 91.898438 64.84375 96.300781 59.414062 96.300781 Z M 76.191406 48.132812 C 73.476562 48.132812 71.277344 45.933594 71.277344 43.21875 C 71.277344 40.503906 73.476562 38.300781 76.191406 38.300781 C 78.90625 38.300781 81.109375 40.503906 81.109375 43.21875 C 81.109375 45.933594 78.90625 48.132812 76.191406 48.132812 Z M 76.191406 48.132812 " fill-opacity="1" fill-rule="nonzero"/><path fill="#ffffff" d="M 34.636719 22.371094 C 34.636719 26.769531 31.070312 30.335938 26.671875 30.335938 C 31.070312 30.335938 34.636719 33.902344 34.636719 38.300781 C 34.636719 33.902344 38.203125 30.335938 42.601562 30.335938 C 38.203125 30.335938 34.636719 26.769531 34.636719 22.371094 Z M 34.636719 22.371094 " fill-opacity="1" fill-rule="nonzero"/><g fill="#ffffff" fill-opacity="1"><g transform="translate(157.814924, 109.037445)"><g><path d="M 9.125 -6.09375 C 4.507812 -11.125 2.203125 -17.289062 2.203125 -24.59375 C 2.203125 -31.894531 4.507812 -38.078125 9.125 -43.140625 C 13.738281 -48.203125 19.601562 -50.734375 26.71875 -50.734375 C 33.25 -50.734375 38.628906 -48.6875 42.859375 -44.59375 L 42.859375 -82.640625 L 59.859375 -82.640625 L 59.859375 0 L 43.046875 0 L 43.046875 -5.578125 L 42.859375 -5.578125 C 38.628906 -0.898438 33.25 1.4375 26.71875 1.4375 C 19.601562 1.4375 13.738281 -1.070312 9.125 -6.09375 Z M 23.59375 -32.953125 C 21.382812 -30.773438 20.28125 -27.988281 20.28125 -24.59375 C 20.28125 -21.195312 21.335938 -18.425781 23.453125 -16.28125 C 25.566406 -14.132812 28.351562 -13.0625 31.8125 -13.0625 C 35.132812 -13.0625 37.867188 -14.148438 40.015625 -16.328125 C 42.160156 -18.515625 43.234375 -21.269531 43.234375 -24.59375 C 43.234375 -27.988281 42.128906 -30.773438 39.921875 -32.953125 C 37.710938 -35.140625 35.007812 -36.234375 31.8125 -36.234375 C 28.539062 -36.234375 25.800781 -35.140625 23.59375 -32.953125 Z M 23.59375 -32.953125 "/></g></g></g><g fill="#ffffff" fill-opacity="1"><g transform="translate(218.637658, 109.037445)"><g><path d="M 7.390625 -76.765625 C 9.378906 -78.753906 11.75 -79.75 14.5 -79.75 C 17.257812 -79.75 19.628906 -78.753906 21.609375 -76.765625 C 23.597656 -74.785156 24.59375 -72.414062 24.59375 -69.65625 C 24.59375 -66.90625 23.597656 -64.535156 21.609375 -62.546875 C 19.628906 -60.566406 17.257812 -59.578125 14.5 -59.578125 C 11.75 -59.578125 9.378906 -60.566406 7.390625 -62.546875 C 5.410156 -64.535156 4.421875 -66.90625 4.421875 -69.65625 C 4.421875 -72.414062 5.410156 -74.785156 7.390625 -76.765625 Z M 5.765625 -49.296875 L 5.765625 0 L 22.78125 0 L 22.78125 -49.296875 Z M 5.765625 -49.296875 "/></g></g></g><g fill="#ffffff" fill-opacity="1"><g transform="translate(242.851328, 109.037445)"><g><path d="M 3.5625 12.109375 L 17.484375 5.28125 C 20.046875 9.507812 24.5 11.625 30.84375 11.625 C 33.789062 11.625 36.53125 10.675781 39.0625 8.78125 C 41.59375 6.894531 42.859375 4 42.859375 0.09375 L 42.859375 -3.5625 C 39.847656 -0.226562 34.46875 1.4375 26.71875 1.4375 C 19.601562 1.4375 13.738281 -1.070312 9.125 -6.09375 C 4.507812 -11.125 2.203125 -17.289062 2.203125 -24.59375 C 2.203125 -31.894531 4.507812 -38.078125 9.125 -43.140625 C 13.738281 -48.203125 19.601562 -50.734375 26.71875 -50.734375 C 33.0625 -50.734375 38.34375 -48.78125 42.5625 -44.875 L 42.859375 -44.875 L 42.859375 -49.296875 L 59.859375 -49.296875 L 59.859375 1.34375 C 59.859375 9.351562 57.203125 15.535156 51.890625 19.890625 C 46.578125 24.242188 39.5625 26.421875 30.84375 26.421875 C 16.75 26.421875 7.65625 21.648438 3.5625 12.109375 Z M 23.59375 -32.953125 C 21.382812 -30.773438 20.28125 -27.988281 20.28125 -24.59375 C 20.28125 -21.195312 21.335938 -18.425781 23.453125 -16.28125 C 25.566406 -14.132812 28.351562 -13.0625 31.8125 -13.0625 C 35.132812 -13.0625 37.867188 -14.148438 40.015625 -16.328125 C 42.160156 -18.515625 43.234375 -21.269531 43.234375 -24.59375 C 43.234375 -27.988281 42.128906 -30.773438 39.921875 -32.953125 C 37.710938 -35.140625 35.007812 -36.234375 31.8125 -36.234375 C 28.539062 -36.234375 25.800781 -35.140625 23.59375 -32.953125 Z M 23.59375 -32.953125 "/></g></g></g><g fill="#ffffff" fill-opacity="1"><g transform="translate(303.674062, 109.037445)"><g><path d="M 7.390625 -76.765625 C 9.378906 -78.753906 11.75 -79.75 14.5 -79.75 C 17.257812 -79.75 19.628906 -78.753906 21.609375 -76.765625 C 23.597656 -74.785156 24.59375 -72.414062 24.59375 -69.65625 C 24.59375 -66.90625 23.597656 -64.535156 21.609375 -62.546875 C 19.628906 -60.566406 17.257812 -59.578125 14.5 -59.578125 C 11.75 -59.578125 9.378906 -60.566406 7.390625 -62.546875 C 5.410156 -64.535156 4.421875 -66.90625 4.421875 -69.65625 C 4.421875 -72.414062 5.410156 -74.785156 7.390625 -76.765625 Z M 5.765625 -49.296875 L 5.765625 0 L 22.78125 0 L 22.78125 -49.296875 Z M 5.765625 -49.296875 "/></g></g></g><g fill="#ffffff" fill-opacity="1"><g transform="translate(327.887732, 109.037445)"><g><path d="M 8.640625 -49.296875 L 8.640625 -67.65625 L 25.65625 -67.65625 L 25.65625 -49.296875 L 36.03125 -49.296875 L 36.03125 -36.328125 L 25.65625 -36.328125 L 25.65625 -20.65625 C 25.65625 -16.113281 26.9375 -13.84375 29.5 -13.84375 C 30.144531 -13.84375 30.816406 -13.96875 31.515625 -14.21875 C 32.222656 -14.476562 32.769531 -14.734375 33.15625 -14.984375 L 33.734375 -15.375 L 37.953125 -1.640625 C 34.304688 0.410156 30.144531 1.4375 25.46875 1.4375 C 22.257812 1.4375 19.5 0.878906 17.1875 -0.234375 C 14.882812 -1.359375 13.140625 -2.863281 11.953125 -4.75 C 10.773438 -6.644531 9.925781 -8.632812 9.40625 -10.71875 C 8.894531 -12.800781 8.640625 -15.023438 8.640625 -17.390625 L 8.640625 -36.328125 L 1.53125 -36.328125 L 1.53125 -49.296875 Z M 8.640625 -49.296875 "/></g></g></g><g fill="#ffffff" fill-opacity="1"><g transform="translate(361.03747, 109.037445)"><g><path d="M 9.125 -6.09375 C 4.507812 -11.125 2.203125 -17.289062 2.203125 -24.59375 C 2.203125 -31.894531 4.507812 -38.078125 9.125 -43.140625 C 13.738281 -48.203125 19.601562 -50.734375 26.71875 -50.734375 C 33.25 -50.734375 38.628906 -48.6875 42.859375 -44.59375 L 42.859375 -49.296875 L 59.859375 -49.296875 L 59.859375 0 L 43.046875 0 L 43.046875 -5.578125 L 42.859375 -5.578125 C 38.628906 -0.898438 33.25 1.4375 26.71875 1.4375 C 19.601562 1.4375 13.738281 -1.070312 9.125 -6.09375 Z M 23.59375 -32.953125 C 21.382812 -30.773438 20.28125 -27.988281 20.28125 -24.59375 C 20.28125 -21.195312 21.335938 -18.425781 23.453125 -16.28125 C 25.566406 -14.132812 28.351562 -13.0625 31.8125 -13.0625 C 35.132812 -13.0625 37.867188 -14.148438 40.015625 -16.328125 C 42.160156 -18.515625 43.234375 -21.269531 43.234375 -24.59375 C 43.234375 -27.988281 42.128906 -30.773438 39.921875 -32.953125 C 37.710938 -35.140625 35.007812 -36.234375 31.8125 -36.234375 C 28.539062 -36.234375 25.800781 -35.140625 23.59375 -32.953125 Z M 23.59375 -32.953125 "/></g></g></g><g fill="#ffffff" fill-opacity="1"><g transform="translate(421.860217, 109.037445)"><g><path d="M 5.765625 0 L 5.765625 -82.640625 L 22.78125 -82.640625 L 22.78125 0 Z M 5.765625 0 "/></g></g></g><g fill="#ffffff" fill-opacity="1"><g transform="translate(445.593467, 109.037445)"><g><path d="M 21.8125 -49.296875 L 21.8125 -25.84375 C 21.8125 -20.976562 22.546875 -17.519531 24.015625 -15.46875 C 25.492188 -13.414062 27.992188 -12.390625 31.515625 -12.390625 C 35.035156 -12.390625 37.53125 -13.414062 39 -15.46875 C 40.476562 -17.519531 41.21875 -20.976562 41.21875 -25.84375 L 41.21875 -49.296875 L 58.234375 -49.296875 L 58.234375 -21.71875 C 58.234375 -13.519531 56.101562 -7.609375 51.84375 -3.984375 C 47.582031 -0.367188 40.804688 1.4375 31.515625 1.4375 C 22.222656 1.4375 15.445312 -0.367188 11.1875 -3.984375 C 6.925781 -7.609375 4.796875 -13.519531 4.796875 -21.71875 L 4.796875 -49.296875 Z M 21.8125 -49.296875 "/></g></g></g><g fill="#ffffff" fill-opacity="1"><g transform="translate(503.821856, 109.037445)"><g><path d="M 5.765625 0 L 5.765625 -49.296875 L 22.78125 -49.296875 L 22.78125 -44.109375 L 22.96875 -44.109375 C 27.382812 -48.523438 32.09375 -50.734375 37.09375 -50.734375 C 39.53125 -50.734375 41.945312 -50.410156 44.34375 -49.765625 C 46.75 -49.128906 49.054688 -48.140625 51.265625 -46.796875 C 53.472656 -45.453125 55.265625 -43.546875 56.640625 -41.078125 C 58.023438 -38.609375 58.71875 -35.742188 58.71875 -32.484375 L 58.71875 0 L 41.703125 0 L 41.703125 -27.859375 C 41.703125 -30.421875 40.882812 -32.660156 39.25 -34.578125 C 37.613281 -36.503906 35.484375 -37.46875 32.859375 -37.46875 C 30.296875 -37.46875 27.972656 -36.472656 25.890625 -34.484375 C 23.816406 -32.503906 22.78125 -30.296875 22.78125 -27.859375 L 22.78125 0 Z M 5.765625 0 "/></g></g></g><g fill="#ffffff" fill-opacity="1"><g transform="translate(562.530679, 109.037445)"><g><path d="M 7.390625 -76.765625 C 9.378906 -78.753906 11.75 -79.75 14.5 -79.75 C 17.257812 -79.75 19.628906 -78.753906 21.609375 -76.765625 C 23.597656 -74.785156 24.59375 -72.414062 24.59375 -69.65625 C 24.59375 -66.90625 23.597656 -64.535156 21.609375 -62.546875 C 19.628906 -60.566406 17.257812 -59.578125 14.5 -59.578125 C 11.75 -59.578125 9.378906 -60.566406 7.390625 -62.546875 C 5.410156 -64.535156 4.421875 -66.90625 4.421875 -69.65625 C 4.421875 -72.414062 5.410156 -74.785156 7.390625 -76.765625 Z M 5.765625 -49.296875 L 5.765625 0 L 22.78125 0 L 22.78125 -49.296875 Z M 5.765625 -49.296875 "/></g></g></g><g fill="#ffffff" fill-opacity="1"><g transform="translate(586.744362, 109.037445)"><g><path d="M 18.25 -49.296875 L 30.265625 -22.484375 L 42.28125 -49.296875 L 62.453125 -49.296875 L 36.03125 0 L 24.5 0 L -1.921875 -49.296875 Z M 18.25 -49.296875 "/></g></g></g><g fill="#ffffff" fill-opacity="1"><g transform="translate(642.474516, 109.037445)"><g><path d="M 55.640625 -22.296875 L 19.890625 -22.296875 C 19.890625 -18.835938 21.007812 -16.273438 23.25 -14.609375 C 25.5 -12.941406 27.9375 -12.109375 30.5625 -12.109375 C 33.3125 -12.109375 35.488281 -12.472656 37.09375 -13.203125 C 38.695312 -13.941406 40.519531 -15.398438 42.5625 -17.578125 L 54.875 -11.4375 C 49.75 -2.851562 41.226562 1.4375 29.3125 1.4375 C 21.875 1.4375 15.492188 -1.109375 10.171875 -6.203125 C 4.859375 -11.296875 2.203125 -17.425781 2.203125 -24.59375 C 2.203125 -31.769531 4.859375 -37.921875 10.171875 -43.046875 C 15.492188 -48.171875 21.875 -50.734375 29.3125 -50.734375 C 37.125 -50.734375 43.476562 -48.472656 48.375 -43.953125 C 53.28125 -39.441406 55.734375 -32.988281 55.734375 -24.59375 C 55.734375 -23.445312 55.703125 -22.679688 55.640625 -22.296875 Z M 20.375 -31.703125 L 39.109375 -31.703125 C 38.722656 -34.265625 37.710938 -36.234375 36.078125 -37.609375 C 34.441406 -38.992188 32.34375 -39.6875 29.78125 -39.6875 C 26.96875 -39.6875 24.726562 -38.945312 23.0625 -37.46875 C 21.394531 -36 20.5 -34.078125 20.375 -31.703125 Z M 20.375 -31.703125 "/></g></g></g><g fill="#ffffff" fill-opacity="1"><g transform="translate(695.610338, 109.037445)"><g><path d="M 5.765625 0 L 5.765625 -49.296875 L 22.78125 -49.296875 L 22.78125 -42.1875 L 22.96875 -42.1875 C 23.09375 -42.4375 23.296875 -42.753906 23.578125 -43.140625 C 23.867188 -43.523438 24.492188 -44.195312 25.453125 -45.15625 C 26.421875 -46.125 27.445312 -46.988281 28.53125 -47.75 C 29.625 -48.519531 31.035156 -49.207031 32.765625 -49.8125 C 34.492188 -50.425781 36.253906 -50.734375 38.046875 -50.734375 C 39.910156 -50.734375 41.738281 -50.476562 43.53125 -49.96875 C 45.320312 -49.457031 46.632812 -48.945312 47.46875 -48.4375 L 48.8125 -47.65625 L 41.703125 -33.25 C 39.585938 -35.039062 36.640625 -35.9375 32.859375 -35.9375 C 30.804688 -35.9375 29.046875 -35.488281 27.578125 -34.59375 C 26.109375 -33.695312 25.066406 -32.609375 24.453125 -31.328125 C 23.847656 -30.046875 23.414062 -28.957031 23.15625 -28.0625 C 22.90625 -27.164062 22.78125 -26.457031 22.78125 -25.9375 L 22.78125 0 Z M 5.765625 0 "/></g></g></g><g fill="#ffffff" fill-opacity="1"><g transform="translate(738.657046, 109.037445)"><g><path d="M 27.1875 -50.734375 C 30.007812 -50.734375 32.796875 -50.410156 35.546875 -49.765625 C 38.304688 -49.128906 40.359375 -48.492188 41.703125 -47.859375 L 43.71875 -46.890625 L 38.15625 -35.75 C 34.3125 -37.800781 30.65625 -38.828125 27.1875 -38.828125 C 25.269531 -38.828125 23.910156 -38.617188 23.109375 -38.203125 C 22.304688 -37.785156 21.90625 -37 21.90625 -35.84375 C 21.90625 -35.582031 21.9375 -35.320312 22 -35.0625 C 22.0625 -34.8125 22.1875 -34.570312 22.375 -34.34375 C 22.570312 -34.125 22.75 -33.929688 22.90625 -33.765625 C 23.070312 -33.609375 23.347656 -33.429688 23.734375 -33.234375 C 24.117188 -33.046875 24.421875 -32.90625 24.640625 -32.8125 C 24.867188 -32.71875 25.238281 -32.570312 25.75 -32.375 C 26.257812 -32.1875 26.644531 -32.046875 26.90625 -31.953125 C 27.164062 -31.859375 27.597656 -31.710938 28.203125 -31.515625 C 28.804688 -31.328125 29.269531 -31.203125 29.59375 -31.140625 C 31.582031 -30.554688 33.3125 -29.910156 34.78125 -29.203125 C 36.257812 -28.503906 37.8125 -27.546875 39.4375 -26.328125 C 41.070312 -25.109375 42.335938 -23.570312 43.234375 -21.71875 C 44.140625 -19.863281 44.59375 -17.75 44.59375 -15.375 C 44.59375 -4.164062 36.804688 1.4375 21.234375 1.4375 C 17.710938 1.4375 14.363281 0.894531 11.1875 -0.1875 C 8.019531 -1.28125 5.734375 -2.367188 4.328125 -3.453125 L 2.203125 -5.1875 L 9.125 -16.8125 C 9.632812 -16.363281 10.304688 -15.832031 11.140625 -15.21875 C 11.972656 -14.613281 13.476562 -13.78125 15.65625 -12.71875 C 17.84375 -11.664062 19.734375 -11.140625 21.328125 -11.140625 C 24.859375 -11.140625 26.625 -12.328125 26.625 -14.703125 C 26.625 -15.785156 26.171875 -16.628906 25.265625 -17.234375 C 24.367188 -17.847656 22.847656 -18.539062 20.703125 -19.3125 C 18.554688 -20.082031 16.875 -20.785156 15.65625 -21.421875 C 12.582031 -23.023438 10.148438 -24.835938 8.359375 -26.859375 C 6.566406 -28.878906 5.671875 -31.550781 5.671875 -34.875 C 5.671875 -39.875 7.609375 -43.765625 11.484375 -46.546875 C 15.359375 -49.335938 20.59375 -50.734375 27.1875 -50.734375 Z M 27.1875 -50.734375 "/></g></g></g><g fill="#ffffff" fill-opacity="1"><g transform="translate(781.127225, 109.037445)"><g><path d="M 55.640625 -22.296875 L 19.890625 -22.296875 C 19.890625 -18.835938 21.007812 -16.273438 23.25 -14.609375 C 25.5 -12.941406 27.9375 -12.109375 30.5625 -12.109375 C 33.3125 -12.109375 35.488281 -12.472656 37.09375 -13.203125 C 38.695312 -13.941406 40.519531 -15.398438 42.5625 -17.578125 L 54.875 -11.4375 C 49.75 -2.851562 41.226562 1.4375 29.3125 1.4375 C 21.875 1.4375 15.492188 -1.109375 10.171875 -6.203125 C 4.859375 -11.296875 2.203125 -17.425781 2.203125 -24.59375 C 2.203125 -31.769531 4.859375 -37.921875 10.171875 -43.046875 C 15.492188 -48.171875 21.875 -50.734375 29.3125 -50.734375 C 37.125 -50.734375 43.476562 -48.472656 48.375 -43.953125 C 53.28125 -39.441406 55.734375 -32.988281 55.734375 -24.59375 C 55.734375 -23.445312 55.703125 -22.679688 55.640625 -22.296875 Z M 20.375 -31.703125 L 39.109375 -31.703125 C 38.722656 -34.265625 37.710938 -36.234375 36.078125 -37.609375 C 34.441406 -38.992188 32.34375 -39.6875 29.78125 -39.6875 C 26.96875 -39.6875 24.726562 -38.945312 23.0625 -37.46875 C 21.394531 -36 20.5 -34.078125 20.375 -31.703125 Z M 20.375 -31.703125 "/></g></g></g><g fill="#ffffff" fill-opacity="1"><g transform="translate(834.262997, 109.037445)"><g><path d="M 16.71875 -20.5625 C 19.789062 -20.5625 22.398438 -19.488281 24.546875 -17.34375 C 26.691406 -15.195312 27.765625 -12.585938 27.765625 -9.515625 C 27.765625 -6.503906 26.691406 -3.925781 24.546875 -1.78125 C 22.398438 0.363281 19.789062 1.4375 16.71875 1.4375 C 13.707031 1.4375 11.128906 0.363281 8.984375 -1.78125 C 6.835938 -3.925781 5.765625 -6.503906 5.765625 -9.515625 C 5.765625 -12.585938 6.835938 -15.195312 8.984375 -17.34375 C 11.128906 -19.488281 13.707031 -20.5625 16.71875 -20.5625 Z M 16.71875 -20.5625 "/></g></g></g></svg>