<svg id="Icon" viewBox="0 0 64 64" xmlns="http://www.w3.org/2000/svg" width="300" height="300" version="1.1" xmlns:xlink="http://www.w3.org/1999/xlink" xmlns:svgjs="http://svgjs.dev/svgjs"><g width="100%" height="100%" transform="matrix(1,0,0,1,0,0)"><path d="m61 42.22705h-2.06738c-.27295-.9375-.64844-1.84131-1.12207-2.70166l1.46387-1.46387c.39063-.39063.39063-1.02344 0-1.41406l-3.92188-3.92188c-.39063-.39063-1.02344-.39063-1.41406 0l-1.46387 1.46387c-.86035-.47363-1.76416-.84912-2.70166-1.12207v-2.06738c0-.55225-.44775-1-1-1h-5.5459c-.55225 0-1 .44775-1 1v2.06738c-.9375.27295-1.84131.64844-2.70166 1.12207l-1.46387-1.46387c-.39063-.39063-1.02344-.39063-1.41406 0l-3.92188 3.92188c-.39063.39063-.39063 1.02344 0 1.41406l1.46387 1.46387c-.47363.86035-.84912 1.76416-1.12207 2.70166h-2.06738c-.55225 0-1 .44775-1 1v5.5459c0 .55225.44775 1 1 1h2.06738c.27295.9375.64844 1.84131 1.12207 2.70166l-1.46387 1.46387c-.39063.39063-.39063 1.02344 0 1.41406l3.92188 3.92188c.39063.39063 1.02344.39063 1.41406 0l1.46387-1.46387c.86035.47363 1.76416.84912 2.70166 1.12207v2.06738c0 .55225.44775 1 1 1h5.5459c.55225 0 1-.44775 1-1v-2.06738c.9375-.27295 1.84131-.64844 2.70166-1.12207l1.46387 1.46387c.39063.39063 1.02344.39063 1.41406 0l3.92188-3.92188c.39063-.39063.39063-1.02344 0-1.41406l-1.46387-1.46387c.47363-.86035.84912-1.76416 1.12207-2.70166h2.06738c.55225 0 1-.44775 1-1v-5.5459c0-.55225-.44775-1-1-1zm-1 5.5459h-1.84082c-.4668 0-.87158.32324-.9751.77832-.28516 1.25537-.78125 2.44971-1.47412 3.55029-.24902.39502-.19092.90967.13916 1.23975l1.3042 1.3042-2.50781 2.50781-1.3042-1.3042c-.33008-.3291-.84424-.38818-1.23975-.13916-1.10059.69287-2.29492 1.18896-3.55029 1.47412-.45508.10352-.77832.5083-.77832.9751v1.84082h-3.5459v-1.84082c0-.4668-.32324-.87158-.77832-.9751-1.25537-.28516-2.44971-.78125-3.55029-1.47412-.39404-.24902-.90918-.18994-1.23975.13916l-1.3042 1.3042-2.50781-2.50781 1.3042-1.3042c.33008-.33008.38818-.84473.13916-1.23975-.69287-1.10059-1.18896-2.29492-1.47412-3.55029-.10352-.45508-.5083-.77832-.9751-.77832h-1.84082v-3.5459h1.84082c.4668 0 .87158-.32324.9751-.77832.28516-1.25537.78125-2.44971 1.47412-3.55029.24902-.39502.19092-.90967-.13916-1.23975l-1.3042-1.3042 2.50781-2.50781 1.3042 1.3042c.33057.33008.8457.38867 1.23975.13916 1.10059-.69287 2.29492-1.18896 3.55029-1.47412.45508-.10352.77832-.5083.77832-.9751v-1.84082h3.5459v1.84082c0 .4668.32324.87158.77832.9751 1.25537.28516 2.44971.78125 3.55029 1.47412.39551.24951.90967.19092 1.23975-.13916l1.3042-1.3042 2.50781 2.50781-1.3042 1.3042c-.33008.33008-.38818.84473-.13916 1.23975.69287 1.10059 1.18896 2.29492 1.47412 3.55029.10352.45508.5083.77832.9751.77832h1.84082z" fill="#e9aa44" fill-opacity="1" data-original-color="#000000ff" stroke="none" stroke-opacity="1"/><path d="m46 38.18164c-4.41113 0-8 3.58887-8 8s3.58887 8 8 8 8-3.58887 8-8-3.58887-8-8-8zm0 14c-3.30859 0-6-2.69141-6-6s2.69141-6 6-6 6 2.69141 6 6-2.69141 6-6 6z" fill="#e9aa44" fill-opacity="1" data-original-color="#000000ff" stroke="none" stroke-opacity="1"/><path d="m59 2h-54c-1.6543 0-3 1.3457-3 3v41.77295c0 1.6543 1.3457 3 3 3h22c.55225 0 1-.44775 1-1s-.44775-1-1-1h-22c-.55127 0-1-.44873-1-1v-32.30127h9.77246c.55225 0 1-.44775 1-1s-.44775-1-1-1h-9.77246v-7.47168c0-.55127.44873-1 1-1h54c.55127 0 1 .44873 1 1v7.47168h-41.63867c-.55225 0-1 .44775-1 1s.44775 1 1 1h41.63867v19.65869c0 .55225.44775 1 1 1s1-.44775 1-1v-29.13037c0-1.6543-1.3457-3-3-3z" fill="#e9aa44" fill-opacity="1" data-original-color="#000000ff" stroke="none" stroke-opacity="1"/><path d="m8.06934 7.23584c-.55225 0-1 .44775-1 1s.44775 1 1 1h1.54443c.55225 0 1-.44775 1-1s-.44775-1-1-1z" fill="#e9aa44" fill-opacity="1" data-original-color="#000000ff" stroke="none" stroke-opacity="1"/><path d="m13.95068 7.23584c-.55225 0-1 .44775-1 1s.44775 1 1 1h1.54443c.55225 0 1-.44775 1-1s-.44775-1-1-1z" fill="#e9aa44" fill-opacity="1" data-original-color="#000000ff" stroke="none" stroke-opacity="1"/><path d="m21.37646 9.23584c.55225 0 1-.44775 1-1s-.44775-1-1-1h-1.54492c-.55225 0-1 .44775-1 1s.44775 1 1 1z" fill="#e9aa44" fill-opacity="1" data-original-color="#000000ff" stroke="none" stroke-opacity="1"/><path d="m14.65234 19.89844c-.39063-.39063-1.02344-.39063-1.41406 0l-6.68311 6.68311c-.39063.39063-.39063 1.02344 0 1.41406l6.68311 6.68311c.19531.19531.45117.29297.70703.29297s.51172-.09766.70703-.29297c.39063-.39063.39063-1.02344 0-1.41406l-5.97607-5.97607 5.97607-5.97607c.39063-.39063.39063-1.02344 0-1.41406z" fill="#e9aa44" fill-opacity="1" data-original-color="#000000ff" stroke="none" stroke-opacity="1"/><path d="m26.55518 34.67871c.19531.19531.45117.29297.70703.29297s.51172-.09766.70703-.29297l6.68311-6.68311c.39063-.39063.39063-1.02344 0-1.41406l-6.68311-6.68311c-.39063-.39063-1.02344-.39063-1.41406 0s-.39063 1.02344 0 1.41406l5.97607 5.97607-5.97607 5.97607c-.39063.39063-.39063 1.02344 0 1.41406z" fill="#e9aa44" fill-opacity="1" data-original-color="#000000ff" stroke="none" stroke-opacity="1"/><path d="m21.12842 20.38623-3 13.36621c-.12109.53906.21777 1.07422.75635 1.19482.07422.0166.14746.02441.22021.02441.45751 0 .87012-.31592.97461-.78076l3-13.36621c.12109-.53906-.21777-1.07422-.75635-1.19482-.53955-.11816-1.07373.21777-1.19482.75635z" fill="#e9aa44" fill-opacity="1" data-original-color="#000000ff" stroke="none" stroke-opacity="1"/></g></svg>